<?xml version="1.0" standalone="no"?>
<!DOCTYPE svg PUBLIC "-//W3C//DTD SVG 20010904//EN"
 "http://www.w3.org/TR/2001/REC-SVG-20010904/DTD/svg10.dtd">
<svg style="background:transparent" version="1.0" xmlns="http://www.w3.org/2000/svg"
 width="424.000000pt" height="505.000000pt" viewBox="0 0 424.000000 505.000000"
 preserveAspectRatio="xMidYMid meet">
<metadata>
Created by potrace 1.16, written by Peter Selinger 2001-2019
</metadata>
<g transform="translate(0.000000,505.000000) scale(0.020000,-0.020000)"
fill="#000000" stroke="none">
<path d="M11967 23732 c-15 -16 -17 -55 -17 -337 0 -318 0 -318 -125 -445 -87
-89 -125 -134 -125 -151 0 -33 -352 -386 -398 -399 -19 -5 -56 -29 -82 -54
-27 -25 -59 -46 -70 -46 -13 0 -53 -30 -100 -75 -48 -46 -87 -75 -100 -75 -14
0 -59 -36 -125 -100 -67 -65 -111 -100 -125 -100 -14 0 -58 -35 -125 -100 -68
-66 -110 -100 -125 -100 -15 0 -64 -40 -150 -125 -82 -81 -135 -125 -149 -125
-11 0 -46 -22 -76 -50 -30 -27 -64 -50 -75 -50 -11 0 -45 -22 -75 -50 -55 -50
-56 -50 -123 -50 -57 0 -74 -4 -102 -25 -23 -17 -47 -25 -75 -25 -28 0 -52 -8
-75 -25 -23 -17 -47 -25 -75 -25 -28 0 -52 -8 -75 -25 -19 -14 -41 -25 -50
-25 -9 0 -31 -11 -50 -25 -24 -18 -47 -25 -77 -25 -37 0 -50 -6 -98 -50 -30
-27 -64 -50 -75 -50 -11 0 -45 -22 -75 -50 -30 -27 -63 -50 -73 -50 -10 0 -33
-11 -52 -25 -19 -14 -42 -25 -52 -25 -10 0 -38 -18 -63 -41 -69 -64 -113 -36
-61 40 14 20 26 44 26 52 0 8 11 30 25 49 14 19 25 41 25 50 0 9 11 31 25 50
14 19 25 42 25 52 0 29 -59 87 -100 98 -43 12 -100 69 -100 101 0 12 -32 54
-75 99 -75 79 -75 79 -75 197 0 111 2 121 25 153 14 19 25 43 25 53 0 25 -72
97 -97 97 -10 0 -34 11 -53 25 -24 17 -47 25 -77 25 -53 0 -108 44 -123 99 -5
20 -27 54 -50 76 -22 22 -45 55 -50 75 -12 44 -364 400 -396 400 -11 0 -35 11
-54 25 -19 14 -41 25 -50 25 -9 0 -31 11 -50 25 -23 17 -47 25 -75 25 -28 0
-52 8 -75 25 -34 25 -34 25 -325 25 -291 0 -291 0 -325 -25 -23 -17 -47 -25
-75 -25 -28 0 -52 -8 -75 -25 -19 -14 -41 -25 -50 -25 -9 0 -31 -11 -50 -25
-19 -14 -42 -25 -52 -25 -10 0 -43 -22 -73 -50 -30 -27 -64 -50 -76 -50 -30 0
-137 -106 -148 -147 -6 -19 -30 -57 -55 -83 -40 -43 -46 -55 -46 -93 0 -30 -7
-53 -25 -77 -24 -33 -25 -39 -25 -200 0 -161 -1 -167 -25 -200 -18 -24 -25
-47 -25 -78 0 -39 -5 -49 -57 -103 -37 -39 -69 -62 -92 -69 -24 -6 -59 -32
-101 -75 -42 -42 -78 -69 -100 -75 -26 -7 -66 -40 -143 -118 -104 -106 -107
-110 -107 -154 0 -31 7 -54 25 -78 18 -24 25 -47 25 -78 0 -38 5 -50 39 -83
39 -39 39 -39 183 -39 138 0 146 1 178 25 19 14 42 25 52 25 10 0 43 23 73 50
30 28 63 50 73 50 10 0 33 11 52 25 59 43 150 27 150 -26 0 -8 11 -30 25 -49
14 -19 25 -41 25 -50 0 -9 11 -31 25 -50 14 -19 25 -42 25 -53 0 -10 34 -54
75 -97 75 -79 75 -79 75 -149 0 -83 -33 -133 -99 -151 -47 -12 -301 -264 -301
-298 0 -12 -22 -47 -50 -77 -27 -30 -50 -64 -50 -75 0 -11 -22 -45 -50 -75
-44 -48 -50 -61 -50 -98 0 -30 -7 -53 -25 -77 -14 -19 -25 -41 -25 -50 0 -9
-11 -31 -25 -50 -17 -23 -25 -47 -25 -75 0 -28 -8 -52 -25 -75 -21 -28 -25
-45 -25 -100 0 -55 -4 -72 -25 -100 -24 -33 -25 -39 -25 -200 0 -161 -1 -167
-25 -200 -25 -34 -25 -35 -25 -250 0 -215 0 -216 -25 -250 -24 -33 -25 -39
-25 -200 0 -161 -1 -167 -25 -200 -14 -19 -25 -41 -25 -50 0 -9 -11 -31 -25
-50 -14 -19 -25 -41 -25 -50 0 -9 -11 -31 -25 -50 -14 -19 -25 -41 -25 -50 0
-9 -11 -31 -25 -50 -17 -23 -25 -47 -25 -75 0 -28 -8 -52 -25 -75 -14 -19 -25
-41 -25 -50 0 -9 -11 -31 -25 -50 -14 -19 -25 -41 -25 -50 0 -9 -11 -31 -25
-50 -17 -23 -25 -47 -25 -75 0 -28 -8 -52 -25 -75 -17 -23 -25 -47 -25 -75 0
-28 -8 -52 -25 -75 -17 -23 -25 -47 -25 -75 0 -28 -8 -52 -25 -75 -21 -28 -25
-45 -25 -100 0 -55 -4 -72 -25 -100 -21 -28 -25 -45 -25 -100 0 -55 -4 -72
-25 -100 -23 -31 -25 -43 -25 -128 0 -95 0 -95 -107 -204 -72 -73 -118 -111
-140 -117 -18 -5 -45 -19 -59 -30 -15 -12 -34 -21 -43 -21 -10 0 -32 -11 -51
-25 -23 -17 -47 -25 -75 -25 -28 0 -52 -8 -75 -25 -19 -14 -41 -25 -50 -25 -9
0 -31 -11 -50 -25 -19 -14 -42 -25 -52 -25 -10 0 -43 -22 -73 -50 -30 -27 -64
-50 -76 -50 -12 0 -53 -32 -99 -75 -43 -41 -87 -75 -97 -75 -11 0 -34 -11 -53
-25 -24 -18 -47 -25 -79 -25 -41 0 -49 -4 -108 -63 -60 -60 -63 -66 -63 -112
0 -68 56 -125 122 -125 31 0 54 -7 78 -25 30 -22 44 -25 125 -25 81 0 95 -3
125 -25 65 -48 108 -38 200 50 46 43 87 75 99 75 12 0 46 23 76 50 30 28 63
50 73 50 10 0 33 11 52 25 19 14 41 25 51 25 9 0 29 10 44 22 42 33 82 28 122
-15 33 -37 33 -37 33 -158 0 -122 0 -122 60 -182 59 -59 59 -59 95 -38 20 11
42 21 50 21 26 0 45 31 45 74 0 29 8 52 25 76 14 19 25 41 25 50 0 9 11 31 25
50 14 19 25 41 25 50 0 9 11 31 25 50 14 19 25 41 25 50 0 9 11 31 25 50 18
24 25 47 25 77 0 37 6 50 50 98 28 30 50 64 50 75 0 11 23 45 50 75 28 30 50
65 50 76 0 14 44 67 125 149 87 89 125 134 125 150 0 17 56 80 200 225 136
137 200 208 200 223 0 12 22 47 50 77 28 30 50 63 50 73 0 10 11 33 25 52 14
19 25 43 25 54 0 12 75 95 200 221 142 143 200 208 200 224 0 16 33 57 100
126 56 57 100 111 100 122 0 11 11 34 25 53 14 19 25 41 25 50 0 9 11 31 25
50 14 19 25 41 25 50 0 9 11 31 25 50 14 19 25 42 25 52 0 24 42 50 66 42 10
-4 51 -38 90 -76 40 -37 81 -68 92 -68 10 0 31 -9 46 -21 14 -11 41 -25 59
-30 40 -11 197 -167 197 -196 0 -10 11 -34 25 -53 14 -19 25 -41 25 -50 0 -9
11 -31 25 -50 17 -23 25 -47 25 -75 0 -28 8 -52 25 -75 14 -19 25 -41 25 -50
0 -9 11 -31 25 -50 14 -19 25 -41 25 -50 0 -9 11 -31 25 -50 14 -19 25 -41 25
-50 0 -9 11 -31 25 -50 14 -19 25 -41 25 -50 0 -9 11 -31 25 -50 14 -19 25
-41 25 -50 0 -9 11 -31 25 -50 14 -19 25 -41 25 -50 0 -9 11 -31 25 -50 14
-19 25 -42 25 -52 0 -10 23 -43 50 -73 28 -30 50 -63 50 -73 0 -10 11 -33 25
-52 14 -19 25 -42 25 -52 0 -10 23 -43 50 -73 28 -31 50 -65 50 -77 0 -32 503
-535 547 -547 18 -5 45 -19 59 -30 15 -12 34 -21 43 -21 10 0 32 -11 51 -25
19 -14 41 -25 50 -25 9 0 31 -11 50 -25 23 -17 47 -25 75 -25 28 0 52 -8 75
-25 28 -21 45 -25 100 -25 55 0 72 -4 100 -25 30 -22 44 -25 125 -25 81 0 95
-3 125 -25 24 -18 47 -25 78 -25 39 0 49 -5 103 -56 36 -35 62 -70 68 -90 5
-19 19 -46 30 -60 17 -21 21 -41 21 -93 0 -56 4 -73 25 -101 21 -28 25 -45 25
-100 0 -55 4 -72 25 -100 14 -19 25 -41 25 -50 0 -9 11 -31 25 -50 14 -19 25
-41 25 -50 0 -9 11 -31 25 -50 14 -19 25 -41 25 -50 0 -9 11 -31 25 -50 21
-28 25 -45 25 -100 0 -55 4 -72 25 -100 24 -33 25 -39 25 -200 0 -161 1 -167
25 -200 25 -34 25 -34 25 -275 0 -241 0 -241 25 -275 23 -32 25 -42 25 -150 0
-108 2 -118 25 -150 22 -30 25 -44 25 -125 0 -81 3 -95 25 -125 17 -23 25 -47
25 -75 0 -28 8 -52 25 -75 14 -19 25 -41 25 -50 0 -9 11 -31 25 -50 14 -19 25
-41 25 -50 0 -9 11 -31 25 -50 14 -19 25 -41 25 -50 0 -9 11 -31 25 -50 17
-23 25 -47 25 -75 0 -28 8 -52 25 -75 14 -19 25 -41 25 -50 0 -9 11 -31 25
-50 14 -19 25 -41 25 -50 0 -9 11 -31 25 -50 14 -19 25 -41 25 -50 0 -20 -31
-50 -51 -50 -8 0 -30 -11 -49 -25 -19 -14 -41 -25 -50 -25 -9 0 -31 -11 -50
-25 -23 -17 -47 -25 -75 -25 -28 0 -52 -8 -75 -25 -19 -14 -41 -25 -50 -25 -9
0 -31 -11 -50 -25 -19 -14 -41 -25 -50 -25 -9 0 -31 -11 -50 -25 -23 -17 -47
-25 -75 -25 -28 0 -52 -8 -75 -25 -19 -14 -41 -25 -50 -25 -9 0 -31 -11 -50
-25 -19 -14 -41 -25 -50 -25 -9 0 -31 -11 -50 -25 -23 -17 -47 -25 -75 -25
-28 0 -52 -8 -75 -25 -19 -14 -41 -25 -50 -25 -9 0 -31 -11 -50 -25 -19 -14
-41 -25 -50 -25 -9 0 -31 -11 -50 -25 -23 -17 -47 -25 -75 -25 -28 0 -52 -8
-75 -25 -23 -17 -47 -25 -75 -25 -28 0 -52 -8 -75 -25 -19 -14 -41 -25 -50
-25 -9 0 -31 -11 -50 -25 -19 -14 -41 -25 -50 -25 -9 0 -31 -11 -50 -25 -23
-17 -47 -25 -75 -25 -28 0 -52 -8 -75 -25 -19 -14 -41 -25 -50 -25 -9 0 -31
-11 -50 -25 -19 -14 -41 -25 -50 -25 -9 0 -31 -11 -50 -25 -19 -14 -41 -25
-50 -25 -9 0 -31 -11 -50 -25 -23 -17 -47 -25 -75 -25 -28 0 -52 -8 -75 -25
-19 -14 -42 -25 -52 -25 -10 0 -43 -22 -73 -50 -30 -27 -63 -50 -73 -50 -10 0
-33 -11 -52 -25 -19 -14 -41 -25 -50 -25 -9 0 -31 -11 -50 -25 -19 -14 -42
-25 -53 -25 -11 0 -65 -44 -122 -100 -70 -68 -110 -100 -126 -100 -35 0 -386
-353 -399 -401 -13 -46 -166 -199 -200 -199 -17 0 -81 -57 -225 -200 -143
-142 -208 -200 -224 -200 -16 0 -57 -33 -126 -100 -68 -66 -110 -100 -125
-100 -15 0 -64 -40 -150 -125 -88 -87 -134 -125 -150 -125 -17 0 -74 -51 -200
-175 -125 -124 -183 -175 -200 -175 -33 0 -187 -153 -200 -198 -6 -24 -41 -67
-105 -132 -60 -61 -95 -105 -95 -118 0 -12 -22 -47 -50 -77 -27 -30 -50 -63
-50 -73 0 -10 -11 -33 -25 -52 -14 -19 -25 -41 -25 -50 0 -9 -11 -31 -25 -50
-14 -19 -25 -41 -25 -50 0 -9 -11 -31 -25 -50 -17 -23 -25 -47 -25 -75 0 -28
-8 -52 -25 -75 -14 -19 -25 -41 -25 -50 0 -9 -11 -31 -25 -50 -14 -19 -25 -41
-25 -50 0 -9 -11 -31 -25 -50 -17 -23 -25 -47 -25 -75 0 -28 -8 -52 -25 -75
-14 -19 -25 -42 -25 -52 0 -10 -22 -43 -50 -73 -27 -30 -50 -63 -50 -73 0 -10
-11 -33 -25 -52 -14 -19 -25 -42 -25 -52 0 -10 -22 -43 -50 -73 -27 -30 -50
-64 -50 -75 0 -11 -22 -45 -50 -75 -27 -30 -50 -64 -50 -75 0 -11 -22 -45 -50
-75 -27 -30 -50 -64 -50 -75 0 -11 -22 -45 -50 -75 -27 -30 -50 -64 -50 -75 0
-11 -22 -45 -50 -75 -27 -30 -50 -64 -50 -75 0 -11 -22 -45 -50 -75 -27 -30
-50 -63 -50 -73 0 -10 -11 -33 -25 -52 -14 -19 -25 -41 -25 -50 0 -9 -11 -31
-25 -50 -14 -19 -25 -41 -25 -50 0 -9 -11 -31 -25 -50 -17 -23 -25 -47 -25
-75 0 -28 -8 -52 -25 -75 -17 -23 -25 -47 -25 -75 0 -28 -8 -52 -25 -75 -17
-23 -25 -47 -25 -75 0 -28 -8 -52 -25 -75 -17 -23 -25 -47 -25 -75 0 -28 -8
-52 -25 -75 -17 -23 -25 -47 -25 -75 0 -28 -8 -52 -25 -75 -17 -23 -25 -47
-25 -75 0 -28 -8 -52 -25 -75 -17 -23 -25 -47 -25 -75 0 -28 -8 -52 -25 -75
-14 -19 -25 -41 -25 -50 0 -9 -11 -31 -25 -50 -17 -23 -25 -47 -25 -75 0 -28
-8 -52 -25 -75 -14 -19 -25 -41 -25 -50 0 -9 -11 -31 -25 -50 -14 -19 -25 -41
-25 -50 0 -9 -11 -31 -25 -50 -14 -19 -25 -42 -25 -52 0 -11 -21 -41 -46 -68
-25 -26 -49 -63 -54 -82 -13 -44 -316 -348 -348 -348 -12 0 -46 -22 -77 -50
-30 -27 -64 -50 -75 -50 -11 0 -45 -22 -75 -50 -30 -27 -64 -50 -75 -50 -11 0
-45 -22 -75 -50 -30 -27 -64 -50 -75 -50 -11 0 -45 -22 -75 -50 -30 -27 -64
-50 -76 -50 -11 0 -42 -21 -69 -46 -26 -25 -63 -49 -82 -54 -46 -13 -448 -415
-448 -449 0 -14 -27 -51 -75 -101 -41 -43 -75 -87 -75 -97 0 -11 -11 -34 -25
-53 -14 -19 -25 -41 -25 -50 0 -9 -11 -31 -25 -50 -14 -19 -25 -41 -25 -50 0
-9 -11 -31 -25 -50 -25 -34 -25 -35 -25 -251 0 -204 1 -218 21 -243 11 -14 25
-41 30 -60 11 -39 118 -146 146 -146 11 0 34 -11 53 -25 19 -14 41 -25 50 -25
9 0 31 -11 50 -25 34 -25 34 -25 275 -25 241 0 241 0 275 25 23 17 47 25 75
25 28 0 52 8 75 25 19 14 42 25 52 25 10 0 43 23 73 50 30 28 64 50 76 50 11
0 42 21 69 46 26 25 63 49 82 54 45 13 398 366 398 398 0 12 22 46 50 77 28
30 50 64 50 75 0 11 23 45 50 75 28 30 50 64 50 75 0 11 23 45 50 75 28 30 50
64 50 76 0 12 32 53 75 99 46 48 75 87 75 100 0 14 36 59 100 125 67 69 100
110 100 125 0 34 203 237 249 250 23 6 66 41 131 105 56 54 106 95 117 95 10
0 34 11 53 25 19 14 41 25 50 25 9 0 31 11 50 25 23 17 47 25 75 25 28 0 52 8
75 25 33 24 39 25 200 25 161 0 167 1 200 25 34 25 35 25 250 25 215 0 216 0
250 25 23 17 47 25 75 25 28 0 52 8 75 25 19 14 42 25 52 25 10 0 43 23 73 50
31 28 65 50 77 50 34 0 386 354 398 401 12 42 117 149 148 149 22 0 52 30 52
52 0 20 32 48 54 48 10 0 64 45 121 100 57 56 111 100 122 100 11 0 34 11 53
25 19 14 41 25 50 25 9 0 31 11 50 25 19 14 41 25 50 25 9 0 31 11 50 25 23
17 47 25 75 25 28 0 52 8 75 25 48 36 300 39 344 4 14 -11 41 -25 59 -30 40
-11 197 -167 197 -196 0 -10 11 -34 25 -53 14 -19 25 -41 25 -50 0 -9 11 -31
25 -50 34 -46 34 -104 0 -150 -14 -19 -25 -41 -25 -50 0 -9 -11 -31 -25 -50
-14 -19 -25 -42 -25 -53 0 -10 -34 -54 -75 -97 -46 -49 -75 -87 -75 -101 0
-32 -154 -187 -199 -199 -46 -12 -751 -713 -751 -746 0 -11 -11 -35 -25 -54
-14 -19 -25 -41 -25 -50 0 -9 -11 -31 -25 -50 -38 -51 -38 -249 0 -300 14 -19
25 -43 25 -53 0 -30 206 -235 247 -246 18 -5 45 -19 59 -30 17 -14 41 -21 68
-21 29 0 53 -8 76 -25 49 -36 151 -36 200 0 23 17 47 25 76 25 27 0 51 7 68
21 14 11 41 25 59 30 44 12 397 365 397 397 0 12 22 46 50 77 28 30 50 63 50
73 0 10 11 33 25 52 14 19 25 42 25 52 0 10 23 43 50 73 28 30 50 63 50 73 0
10 11 33 25 52 14 19 25 41 25 50 0 9 11 31 25 50 14 19 25 41 25 50 0 9 11
31 25 50 14 19 25 41 25 50 0 9 11 31 25 50 14 19 25 41 25 50 0 9 11 31 25
50 14 19 25 41 25 50 0 9 11 31 25 50 14 19 25 41 25 50 0 9 11 31 25 50 14
19 25 41 25 50 0 9 11 31 25 50 14 19 25 42 25 52 0 11 21 41 46 68 25 27 49
61 53 77 18 69 101 11 101 -71 0 -29 8 -52 25 -76 17 -23 25 -47 25 -75 0 -28
8 -52 25 -75 17 -23 25 -47 25 -75 0 -28 8 -52 25 -75 17 -23 25 -47 25 -75 0
-28 8 -52 25 -75 14 -19 25 -41 25 -50 0 -9 11 -31 25 -50 14 -19 25 -41 25
-51 0 -9 9 -28 21 -43 11 -14 25 -41 30 -59 6 -22 38 -62 93 -115 84 -82 84
-82 228 -82 132 0 148 2 172 21 14 11 41 25 59 30 43 12 197 167 197 198 0 14
29 52 75 101 43 46 75 87 75 99 0 12 23 46 50 76 28 30 50 64 50 75 0 11 23
45 50 75 28 30 50 65 50 76 0 12 17 39 39 60 39 39 39 39 158 39 111 0 121 -2
153 -25 34 -25 34 -25 300 -25 266 0 266 0 300 -25 32 -23 42 -25 150 -25 108
0 118 -2 150 -25 32 -23 42 -25 150 -25 108 0 118 -2 150 -25 30 -22 44 -25
125 -25 81 0 95 -3 125 -25 28 -21 45 -25 100 -25 55 0 72 -4 100 -25 28 -21
45 -25 100 -25 55 0 72 -4 100 -25 28 -21 45 -25 100 -25 55 0 72 -4 100 -25
28 -21 45 -25 100 -25 55 0 72 -4 100 -25 28 -21 45 -25 100 -25 55 0 72 -4
100 -25 23 -17 47 -25 75 -25 28 0 52 -8 75 -25 23 -17 47 -25 75 -25 28 0 52
-8 75 -25 23 -17 47 -25 75 -25 28 0 52 -8 75 -25 23 -17 47 -25 75 -25 28 0
52 -8 75 -25 23 -17 47 -25 75 -25 28 0 52 -8 75 -25 23 -17 47 -25 75 -25 28
0 52 -8 75 -25 19 -14 41 -25 50 -25 9 0 31 -11 50 -25 23 -17 47 -25 75 -25
28 0 52 -8 75 -25 23 -17 47 -25 75 -25 28 0 52 -8 75 -25 19 -14 41 -25 50
-25 9 0 31 -11 50 -25 23 -17 47 -25 75 -25 28 0 52 -8 75 -25 19 -14 41 -25
50 -25 9 0 31 -11 50 -25 19 -14 41 -25 50 -25 9 0 31 -11 50 -25 19 -14 41
-25 50 -25 9 0 31 -11 50 -25 19 -14 41 -25 50 -25 9 0 31 -11 50 -25 19 -14
41 -25 50 -25 9 0 31 -11 50 -25 19 -14 41 -25 50 -25 9 0 31 -11 50 -25 19
-14 41 -25 50 -25 9 0 31 -11 50 -25 19 -14 41 -25 50 -25 9 0 31 -11 50 -25
19 -14 41 -25 50 -25 9 0 31 -11 50 -25 19 -14 41 -25 50 -25 9 0 31 -11 50
-25 19 -14 42 -25 52 -25 10 0 43 -22 73 -50 30 -27 63 -50 73 -50 10 0 33
-11 52 -25 19 -14 41 -25 50 -25 9 0 31 -11 50 -25 19 -14 42 -25 52 -25 10 0
43 -22 73 -50 30 -27 63 -50 73 -50 10 0 33 -11 52 -25 19 -14 41 -25 50 -25
9 0 31 -11 50 -25 19 -14 41 -25 50 -25 9 0 31 -11 50 -25 19 -14 41 -25 50
-25 9 0 31 -11 50 -25 19 -14 41 -25 50 -25 9 0 31 -11 50 -25 19 -14 41 -25
50 -25 9 0 31 -11 50 -25 19 -14 41 -25 50 -25 9 0 31 -11 50 -25 19 -14 41
-25 50 -25 9 0 31 -11 50 -25 23 -17 47 -25 75 -25 28 0 52 -8 75 -25 23 -17
47 -25 75 -25 28 0 52 -8 75 -25 28 -21 45 -25 100 -25 55 0 72 -4 100 -25 34
-25 34 -25 375 -25 341 0 341 0 375 25 28 21 45 25 100 25 55 0 72 4 100 25
19 14 41 25 50 25 9 0 31 11 50 25 19 14 41 25 50 25 9 0 31 11 50 25 19 14
41 25 50 25 9 0 31 11 50 25 19 14 41 25 50 25 9 0 31 11 50 25 19 14 42 25
53 25 10 0 54 34 97 75 50 48 87 75 101 75 33 0 386 353 399 398 5 19 29 56
54 82 25 27 46 57 46 68 0 10 11 33 25 52 14 19 25 41 25 50 0 9 11 31 25 50
21 28 25 45 25 100 0 55 4 72 25 100 25 34 25 34 25 300 0 266 0 266 25 300
25 34 25 34 25 1050 0 1016 0 1016 -25 1050 -24 33 -25 39 -25 200 0 161 -1
167 -25 200 -24 32 -25 40 -25 175 0 135 -1 143 -25 175 -21 28 -25 45 -25
100 0 55 -4 72 -25 100 -21 28 -25 45 -25 100 0 55 -4 72 -25 100 -21 28 -25
45 -25 100 0 55 -4 72 -25 100 -17 23 -25 47 -25 75 0 28 -8 52 -25 75 -21 28
-25 45 -25 100 0 55 -4 72 -25 100 -17 23 -25 47 -25 75 0 28 -8 52 -25 75
-17 23 -25 47 -25 75 0 28 -8 52 -25 75 -14 19 -25 41 -25 50 0 9 -11 31 -25
50 -17 23 -25 47 -25 75 0 28 -8 52 -25 75 -17 23 -25 47 -25 75 0 28 -8 52
-25 75 -14 19 -25 41 -25 50 0 9 -11 31 -25 50 -17 23 -25 47 -25 75 0 28 -8
52 -25 75 -14 19 -25 41 -25 50 0 9 -11 31 -25 50 -14 19 -25 41 -25 50 0 9
-11 31 -25 50 -17 23 -25 47 -25 75 0 28 -8 52 -25 75 -14 19 -25 41 -25 50 0
9 -11 31 -25 50 -14 19 -25 41 -25 50 0 9 -11 31 -25 50 -14 19 -25 41 -25 50
0 9 -11 31 -25 50 -14 19 -25 41 -25 50 0 9 -11 31 -25 50 -14 19 -25 41 -25
50 0 9 -11 31 -25 50 -14 19 -25 41 -25 50 0 9 -11 31 -25 50 -14 19 -25 41
-25 50 0 9 -11 31 -25 50 -14 19 -25 41 -25 50 0 9 -11 31 -25 50 -14 19 -25
41 -25 50 0 9 -11 31 -25 50 -14 19 -25 41 -25 50 0 9 -11 31 -25 50 -14 19
-25 41 -25 50 0 9 -11 31 -25 50 -14 19 -25 41 -25 50 0 9 -11 31 -25 50 -14
19 -25 42 -25 52 0 10 -23 43 -50 73 -28 30 -50 63 -50 73 0 10 -11 33 -25 52
-14 19 -25 41 -25 50 0 9 -11 31 -25 50 -14 19 -25 42 -25 52 0 10 -23 43 -50
73 -28 30 -50 63 -50 73 0 10 -11 33 -25 52 -14 19 -25 42 -25 52 0 10 -23 43
-50 73 -28 30 -50 64 -50 75 0 11 -23 45 -50 75 -28 30 -50 63 -50 73 0 10
-11 33 -25 52 -14 19 -25 42 -25 52 0 10 -22 43 -50 73 -27 30 -50 64 -50 75
0 11 -22 45 -50 75 -27 30 -50 64 -50 76 0 12 -32 53 -75 99 -45 47 -75 87
-75 100 0 13 -30 53 -75 100 -43 46 -75 87 -75 99 0 12 -23 46 -50 76 -28 30
-50 65 -50 76 0 13 -38 60 -100 124 -67 69 -100 110 -100 126 0 16 -44 66
-145 169 -104 105 -148 156 -155 181 -13 47 -315 349 -350 349 -17 0 -72 49
-200 175 -122 121 -184 175 -199 175 -14 0 -51 28 -101 75 -47 45 -87 75 -100
75 -13 0 -53 30 -100 75 -43 41 -87 75 -97 75 -11 0 -34 11 -53 25 -19 14 -41
25 -50 25 -9 0 -31 11 -50 25 -19 14 -42 25 -52 25 -10 0 -43 23 -73 50 -30
28 -63 50 -73 50 -10 0 -33 11 -52 25 -23 17 -47 25 -75 25 -28 0 -52 8 -75
25 -23 17 -47 25 -75 25 -28 0 -52 8 -75 25 -23 17 -47 25 -75 25 -28 0 -52 8
-75 25 -34 25 -34 25 -300 25 -266 0 -266 0 -300 -25 -23 -17 -47 -25 -75 -25
-28 0 -52 -8 -75 -25 -19 -14 -41 -25 -50 -25 -9 0 -31 -11 -50 -25 -19 -14
-42 -25 -52 -25 -11 0 -41 -21 -68 -46 -26 -25 -63 -49 -82 -54 -45 -13 -398
-366 -398 -398 0 -12 -22 -46 -50 -77 -27 -30 -50 -64 -50 -75 0 -11 -22 -45
-50 -75 -27 -30 -50 -63 -50 -73 0 -10 -11 -33 -25 -52 -14 -19 -25 -41 -25
-51 0 -9 -9 -28 -20 -42 -12 -14 -26 -40 -31 -57 -15 -42 -43 -56 -75 -35 -24
15 -24 15 -24 1933 0 1918 0 1918 -25 1952 -25 34 -25 34 -25 575 0 541 0 541
25 575 14 19 25 41 25 50 0 9 11 31 25 50 14 19 25 41 25 50 0 9 11 31 25 50
14 19 25 42 25 53 0 19 129 160 163 179 26 14 223 -179 237 -232 12 -45 166
-200 199 -200 11 0 46 -22 76 -50 30 -27 63 -50 73 -50 10 0 33 -11 52 -25 19
-14 42 -25 52 -25 10 0 43 -22 73 -50 48 -44 61 -50 98 -50 30 0 53 -7 77 -25
28 -21 45 -25 100 -25 55 0 72 -4 100 -25 19 -14 41 -25 50 -25 9 0 31 -11 50
-25 28 -21 45 -25 100 -25 55 0 72 -4 100 -25 23 -17 47 -25 75 -25 28 0 52
-8 75 -25 28 -21 45 -25 100 -25 55 0 72 -4 100 -25 23 -17 47 -25 75 -25 28
0 52 -8 75 -25 23 -17 47 -25 75 -25 28 0 52 -8 75 -25 24 -18 47 -25 78 -25
39 0 49 -5 103 -57 38 -36 62 -69 69 -92 12 -46 1112 -1151 1146 -1151 11 0
35 -11 54 -25 42 -31 58 -31 100 0 19 14 43 25 54 25 30 0 384 355 395 397 5
18 19 45 30 59 12 15 21 35 21 46 0 10 21 41 46 68 25 26 49 64 54 82 13 45
217 248 249 248 14 0 52 28 101 75 43 41 87 75 98 75 23 0 52 30 52 53 0 9 22
42 50 72 27 30 50 63 50 73 0 10 11 33 25 52 14 19 25 41 25 50 0 9 11 31 25
50 14 19 25 41 25 50 0 9 11 31 25 50 14 19 25 41 25 50 0 9 11 31 25 50 25
34 25 34 25 275 0 274 0 275 -76 275 -27 0 -51 8 -74 25 -32 23 -42 25 -150
25 -108 0 -118 -2 -150 -25 -19 -14 -42 -25 -53 -25 -11 0 -65 -44 -122 -100
-64 -62 -111 -100 -124 -100 -11 0 -46 -22 -76 -50 -30 -27 -63 -50 -73 -50
-10 0 -33 -11 -52 -25 -23 -17 -47 -25 -75 -25 -28 0 -52 -8 -75 -25 -34 -25
-34 -25 -300 -25 -266 0 -266 0 -300 25 -19 14 -41 25 -50 25 -9 0 -31 11 -50
25 -19 14 -41 25 -50 25 -9 0 -31 11 -50 25 -19 14 -41 25 -50 25 -9 0 -31 11
-50 25 -19 14 -41 25 -50 25 -9 0 -31 11 -50 25 -23 17 -47 25 -75 25 -28 0
-52 8 -75 25 -19 14 -42 25 -53 25 -10 0 -54 34 -97 75 -50 48 -87 75 -101 75
-17 0 -113 90 -349 325 -249 248 -332 325 -350 325 -37 0 -1186 1150 -1200
1200 -12 44 -315 350 -346 350 -11 0 -35 11 -54 25 -28 21 -45 25 -100 25 -55
0 -72 4 -100 25 -32 24 -40 25 -175 25 -181 0 -175 -5 -175 151 0 107 -2 117
-25 149 -25 34 -25 34 -25 1000 0 966 0 966 25 1000 14 19 25 41 25 50 0 9 11
31 25 50 17 23 25 47 25 75 0 28 8 52 25 75 23 32 25 42 25 150 0 108 -2 118
-25 150 -14 19 -25 42 -25 52 0 10 -22 43 -50 73 -50 55 -50 55 -50 298 0 243
0 243 -25 277 -14 19 -25 41 -25 50 0 46 -22 50 -277 50 -220 0 -241 -2 -256
-18z m-19 -2855 c2 -1098 2 -1098 -55 -1158 -31 -33 -68 -62 -82 -66 -35 -8
-61 -32 -61 -56 0 -27 -72 -97 -100 -97 -15 0 -63 -40 -150 -125 -84 -83 -135
-125 -149 -125 -12 0 -44 -21 -72 -47 -79 -74 -83 -72 -258 100 -99 99 -155
147 -169 147 -12 0 -47 22 -77 50 -30 28 -63 50 -73 50 -10 0 -33 11 -52 25
-19 14 -41 25 -50 25 -9 0 -31 11 -50 25 -19 14 -41 25 -50 25 -9 0 -31 11
-50 25 -19 14 -41 25 -50 25 -9 0 -31 11 -50 25 -19 14 -42 25 -52 25 -10 0
-43 23 -73 50 -30 28 -63 50 -72 50 -31 0 -53 31 -53 76 0 54 44 109 98 124
50 13 652 613 652 649 0 14 27 50 75 101 43 46 75 87 75 99 0 12 23 46 50 76
28 30 50 63 50 73 0 10 11 33 25 52 14 19 25 41 25 50 0 21 28 46 60 53 37 9
290 268 290 297 0 16 38 62 125 150 75 76 125 135 125 147 0 24 26 48 62 57
20 5 30 15 37 42 13 47 49 86 76 82 20 -3 20 -5 23 -1101z m31 -4094 c33 -27
29 -1658 -4 -1658 -17 0 -21 8 -25 50 -3 31 -14 62 -28 79 -19 25 -22 41 -22
120 0 83 -3 96 -25 126 -23 32 -25 42 -25 150 0 108 -2 118 -25 150 -14 19
-25 41 -25 50 0 9 -11 31 -25 50 -21 28 -25 45 -25 100 0 55 -4 72 -25 100
-17 23 -25 47 -25 75 0 28 -8 52 -25 75 -17 23 -25 47 -25 73 0 22 -9 54 -20
71 -19 32 -19 32 0 61 11 17 20 38 20 48 0 30 108 136 151 147 38 11 99 69 99
95 0 16 35 55 49 55 5 0 18 -8 30 -17z m21 -2284 c4 -57 11 -82 28 -104 22
-28 22 -28 22 -1118 0 -1250 11 -1127 -98 -1127 -109 0 -102 -30 -102 425 0
391 0 391 25 425 25 34 25 35 25 250 0 215 0 216 25 250 25 34 25 34 25 550 0
284 3 520 7 524 24 23 38 -2 43 -75z m2250 -1074 c30 -22 44 -25 125 -25 81 0
95 -3 125 -25 23 -17 47 -25 75 -25 28 0 52 -8 75 -25 23 -17 47 -25 75 -25
28 0 52 -8 75 -25 19 -14 41 -25 50 -25 9 0 31 -11 50 -25 19 -14 41 -25 50
-25 9 0 31 -11 50 -25 19 -14 42 -25 52 -25 10 0 43 -22 73 -50 30 -27 64 -50
75 -50 11 0 45 -22 75 -50 30 -27 64 -50 76 -50 12 0 53 -32 99 -75 51 -49 87
-75 102 -75 34 0 1035 -1002 1048 -1049 5 -20 37 -62 80 -106 43 -45 70 -81
70 -95 0 -13 29 -52 75 -100 45 -47 75 -87 75 -100 0 -13 30 -53 75 -100 43
-46 75 -87 75 -99 0 -12 23 -46 50 -76 28 -30 50 -64 50 -75 0 -11 23 -45 50
-75 28 -30 50 -64 50 -75 0 -11 23 -45 50 -75 28 -30 50 -64 50 -75 0 -11 23
-45 50 -75 28 -30 50 -63 50 -73 0 -10 11 -33 25 -52 14 -19 25 -42 25 -52 0
-10 23 -43 50 -73 28 -30 50 -64 50 -75 0 -11 23 -45 50 -75 28 -30 50 -63 50
-73 0 -10 11 -33 25 -52 14 -19 25 -41 25 -50 0 -9 11 -31 25 -50 14 -19 25
-42 25 -52 0 -10 23 -43 50 -73 28 -30 50 -63 50 -73 0 -10 11 -33 25 -52 14
-19 25 -41 25 -50 0 -9 11 -31 25 -50 14 -19 25 -41 25 -50 0 -9 11 -31 25
-50 14 -19 25 -41 25 -50 0 -9 11 -31 25 -50 14 -19 25 -41 25 -50 0 -9 11
-31 25 -50 14 -19 25 -42 25 -52 0 -10 23 -43 50 -73 44 -49 50 -60 50 -100 0
-40 6 -51 50 -100 44 -48 50 -61 50 -98 0 -30 7 -53 25 -77 14 -19 25 -41 25
-50 0 -9 11 -31 25 -50 14 -19 25 -41 25 -50 0 -9 11 -31 25 -50 14 -19 25
-41 25 -50 0 -9 11 -31 25 -50 14 -19 25 -41 25 -50 0 -9 11 -31 25 -50 14
-19 25 -41 25 -50 0 -9 11 -31 25 -50 17 -23 25 -47 25 -75 0 -28 8 -52 25
-75 14 -19 25 -41 25 -50 0 -9 11 -31 25 -50 17 -23 25 -47 25 -75 0 -28 8
-52 25 -75 14 -19 25 -41 25 -50 0 -9 11 -31 25 -50 17 -23 25 -47 25 -75 0
-28 8 -52 25 -75 14 -19 25 -41 25 -50 0 -9 11 -31 25 -50 17 -23 25 -47 25
-75 0 -28 8 -52 25 -75 17 -23 25 -47 25 -75 0 -28 8 -52 25 -75 17 -23 25
-47 25 -75 0 -28 8 -52 25 -75 17 -23 25 -47 25 -75 0 -28 8 -52 25 -75 21
-28 25 -45 25 -100 0 -55 4 -72 25 -100 21 -28 25 -45 25 -100 0 -55 4 -72 25
-100 21 -28 25 -45 25 -100 0 -55 4 -72 25 -100 23 -32 25 -42 25 -150 0 -108
2 -118 25 -150 24 -32 25 -40 25 -175 0 -135 1 -143 25 -175 25 -34 25 -34 25
-350 0 -316 0 -316 25 -350 25 -34 25 -34 25 -501 0 -466 0 -466 -23 -495 -17
-22 -23 -46 -27 -104 -7 -105 -19 -105 -135 9 -58 57 -100 91 -114 91 -11 0
-46 23 -76 50 -30 28 -63 50 -73 50 -10 0 -33 11 -52 25 -19 14 -41 25 -50 25
-9 0 -31 11 -50 25 -23 17 -47 25 -75 25 -28 0 -52 8 -75 25 -31 23 -42 25
-142 25 -87 0 -116 4 -146 19 -36 19 -38 19 -72 0 -28 -14 -58 -18 -146 -19
-101 0 -113 -2 -144 -25 -23 -17 -47 -25 -75 -25 -28 0 -52 -8 -75 -25 -19
-14 -41 -25 -50 -25 -9 0 -31 -11 -50 -25 -19 -14 -41 -25 -50 -25 -9 0 -31
-11 -50 -25 -19 -14 -42 -25 -52 -25 -10 0 -43 -22 -73 -50 -76 -68 -134 -62
-91 10 14 25 16 86 16 592 0 564 0 564 -25 598 -24 32 -25 40 -25 175 0 135
-1 143 -25 175 -22 30 -25 44 -25 125 0 81 -3 95 -25 125 -22 30 -25 44 -25
125 0 81 -3 95 -25 125 -21 28 -25 45 -25 100 0 55 -4 72 -25 100 -17 23 -25
47 -25 75 0 28 -8 52 -25 75 -21 28 -25 45 -25 100 0 55 -4 72 -25 100 -17 23
-25 47 -25 75 0 28 -8 52 -25 75 -17 23 -25 47 -25 75 0 28 -8 52 -25 75 -17
23 -25 47 -25 75 0 28 -8 52 -25 75 -17 23 -25 47 -25 75 0 28 -8 52 -25 75
-14 19 -25 41 -25 50 0 9 -11 31 -25 50 -17 23 -25 47 -25 75 0 28 -8 52 -25
75 -14 19 -25 41 -25 50 0 9 -11 31 -25 50 -17 23 -25 47 -25 75 0 28 -8 52
-25 75 -14 19 -25 41 -25 50 0 9 -11 31 -25 50 -14 19 -25 41 -25 50 0 9 -11
31 -25 50 -17 23 -25 47 -25 75 0 28 -8 52 -25 75 -14 19 -25 41 -25 50 0 9
-11 31 -25 50 -14 19 -25 41 -25 50 0 9 -11 31 -25 50 -14 19 -25 41 -25 50 0
9 -11 31 -25 50 -14 19 -25 41 -25 50 0 9 -11 31 -25 50 -14 19 -25 41 -25 50
0 9 -11 31 -25 50 -14 19 -25 41 -25 50 0 9 -11 31 -25 50 -14 19 -25 42 -25
52 0 10 -22 43 -50 73 -27 30 -50 63 -50 73 0 10 -11 33 -25 52 -14 19 -25 41
-25 50 0 9 -11 31 -25 50 -14 19 -25 41 -25 50 0 9 -11 31 -25 50 -14 19 -25
42 -25 52 0 10 -22 43 -50 73 -27 30 -50 63 -50 73 0 10 -11 33 -25 52 -14 19
-25 42 -25 52 0 10 -22 43 -50 73 -27 30 -50 64 -50 75 0 11 -22 45 -50 75
-27 30 -50 64 -50 75 0 11 -22 45 -50 75 -27 30 -50 64 -50 75 0 11 -22 45
-50 75 -27 30 -50 64 -50 75 0 11 -22 45 -50 75 -27 30 -50 65 -50 76 0 13
-38 60 -100 124 -65 67 -100 111 -100 125 0 14 -35 58 -100 125 -67 69 -100
110 -100 126 0 15 -38 60 -120 144 -84 84 -124 132 -130 156 -13 47 -465 499
-499 499 -17 0 -61 37 -151 125 -85 83 -135 125 -149 125 -14 0 -52 28 -101
75 -46 43 -87 75 -99 75 -12 0 -46 23 -76 50 -30 28 -64 50 -75 50 -11 0 -45
23 -75 50 -30 28 -63 50 -73 50 -10 0 -33 11 -52 25 -19 14 -41 25 -50 25 -9
0 -31 11 -50 25 -19 14 -41 25 -50 25 -9 0 -31 11 -50 25 -19 14 -41 25 -50
25 -9 0 -31 11 -50 25 -19 14 -41 25 -49 25 -53 0 -69 91 -26 150 14 19 25 41
25 50 0 9 11 31 25 50 14 19 25 41 25 50 0 9 11 31 25 50 14 19 25 42 25 53 0
11 44 65 100 122 67 69 100 110 100 125 0 33 203 237 248 250 21 5 63 36 107
80 68 65 76 70 117 70 31 0 54 7 78 25 28 21 45 25 100 25 55 0 72 4 100 25
23 17 47 25 75 25 28 0 52 -8 75 -25z m-1214 -1450 c12 -18 25 -25 49 -25 18
0 43 -8 56 -18 13 -11 39 -24 57 -30 18 -6 45 -20 59 -32 14 -11 34 -20 44
-20 10 0 44 -22 74 -50 30 -27 64 -50 75 -50 11 0 45 -22 75 -50 30 -27 64
-50 75 -50 11 0 45 -22 75 -50 30 -28 65 -50 77 -50 14 0 70 -48 168 -145 104
-104 156 -148 181 -155 48 -13 449 -415 449 -450 0 -16 43 -66 150 -175 102
-104 150 -159 150 -174 0 -14 28 -52 75 -101 45 -47 75 -87 75 -100 0 -13 30
-53 75 -100 45 -47 75 -87 75 -100 0 -13 30 -53 75 -100 43 -46 75 -87 75 -99
0 -12 23 -46 50 -76 28 -30 50 -64 50 -75 0 -11 23 -45 50 -75 28 -30 50 -64
50 -75 0 -11 23 -45 50 -75 28 -30 50 -63 50 -73 0 -10 11 -33 25 -52 14 -19
25 -42 25 -52 0 -10 23 -43 50 -73 28 -30 50 -63 50 -73 0 -10 11 -33 25 -52
14 -19 25 -41 25 -50 0 -9 11 -31 25 -50 14 -19 25 -42 25 -52 0 -10 23 -43
50 -73 28 -30 50 -63 50 -73 0 -10 11 -33 25 -52 14 -19 25 -41 25 -50 0 -9
11 -31 25 -50 14 -19 25 -41 25 -50 0 -9 11 -31 25 -50 14 -19 25 -41 25 -50
0 -9 11 -31 25 -50 14 -19 25 -41 25 -50 0 -9 11 -31 25 -50 14 -19 25 -41 25
-50 0 -9 11 -31 25 -50 14 -19 25 -41 25 -50 0 -9 11 -31 25 -50 14 -19 25
-41 25 -50 0 -9 11 -31 25 -50 14 -19 25 -41 25 -50 0 -9 11 -31 25 -50 14
-19 25 -41 25 -50 0 -9 11 -31 25 -50 17 -23 25 -47 25 -75 0 -28 8 -52 25
-75 14 -19 25 -41 25 -50 0 -9 11 -31 25 -50 14 -19 25 -41 25 -50 0 -9 11
-31 25 -50 17 -23 25 -47 25 -75 0 -28 8 -52 25 -75 17 -23 25 -47 25 -75 0
-28 8 -52 25 -75 14 -19 25 -41 25 -50 0 -9 11 -31 25 -50 17 -23 25 -47 25
-75 0 -28 8 -52 25 -75 17 -23 25 -47 25 -75 0 -28 8 -52 25 -75 17 -23 25
-47 25 -75 0 -28 8 -52 25 -75 17 -23 25 -47 25 -75 0 -28 8 -52 25 -75 21
-28 25 -45 25 -100 0 -55 4 -72 25 -100 21 -28 25 -45 25 -100 0 -55 4 -72 25
-100 21 -28 25 -45 25 -100 0 -55 4 -72 25 -100 22 -30 25 -44 25 -125 0 -81
3 -95 25 -125 24 -32 25 -40 25 -175 0 -135 1 -143 25 -175 25 -34 25 -34 25
-325 0 -291 0 -291 25 -325 31 -42 31 -58 0 -100 -25 -34 -25 -34 -25 -300 0
-266 0 -266 -25 -300 -21 -28 -25 -45 -25 -100 0 -55 -4 -72 -25 -100 -21 -28
-25 -45 -25 -102 0 -97 -38 -120 -109 -66 -14 11 -40 18 -65 18 -29 0 -53 8
-76 25 -23 17 -47 25 -75 25 -28 0 -52 8 -75 25 -23 17 -47 25 -76 25 -27 0
-51 7 -68 21 -15 11 -39 24 -54 28 -15 4 -29 16 -30 25 -6 27 85 114 129 126
41 11 99 70 99 100 0 11 23 45 50 75 28 30 50 63 50 73 0 10 11 33 25 52 14
19 25 41 25 50 0 9 11 31 25 50 25 34 25 34 25 325 0 291 0 291 -25 325 -17
23 -25 47 -25 75 0 28 -8 52 -25 75 -17 23 -25 47 -25 75 0 28 -8 52 -25 75
-17 23 -25 47 -25 75 0 28 -8 52 -25 75 -14 19 -25 41 -25 50 0 9 -11 31 -25
50 -17 23 -25 47 -25 75 0 28 -8 52 -25 75 -14 19 -25 41 -25 50 0 9 -11 31
-25 50 -14 19 -25 41 -25 50 0 9 -11 31 -25 50 -17 23 -25 47 -25 75 0 28 -8
52 -25 75 -14 19 -25 41 -25 50 0 9 -11 31 -25 50 -14 19 -25 41 -25 50 0 9
-11 31 -25 50 -14 19 -25 41 -25 50 0 9 -11 31 -25 50 -17 23 -25 47 -25 75 0
28 -8 52 -25 75 -17 23 -25 47 -25 75 0 28 -8 52 -25 75 -17 23 -25 47 -25 75
0 28 -8 52 -25 75 -22 30 -25 44 -25 125 0 81 -3 95 -25 125 -25 34 -25 34
-25 325 0 291 0 291 -25 325 -22 30 -25 44 -25 125 0 81 -3 95 -25 125 -21 28
-25 45 -25 100 0 55 -4 72 -25 100 -17 23 -25 47 -25 75 0 28 -8 52 -25 75
-17 23 -25 47 -25 75 0 28 -8 52 -25 75 -14 19 -25 41 -25 50 0 9 -11 31 -25
50 -14 19 -25 41 -25 50 0 9 -11 31 -25 50 -14 19 -25 41 -25 50 0 9 -11 31
-25 50 -14 19 -25 41 -25 50 0 9 -11 31 -25 50 -14 19 -25 42 -25 52 0 10 -22
43 -50 73 -27 30 -50 63 -50 73 0 10 -11 33 -25 52 -14 19 -25 42 -25 53 0 10
-34 54 -75 97 -46 48 -75 87 -75 100 0 14 -36 59 -100 125 -67 69 -100 110
-100 125 0 16 -46 70 -150 175 -107 108 -150 159 -150 175 0 17 -55 79 -200
225 -145 146 -200 208 -200 225 0 16 -43 67 -150 175 -104 105 -150 159 -150
175 0 15 -33 56 -100 125 -64 66 -100 111 -100 125 0 13 -29 52 -75 100 -43
46 -75 87 -75 99 0 12 -22 46 -50 76 -28 31 -50 65 -50 77 0 35 -480 514 -545
543 -51 23 -87 55 -98 88 -5 12 -17 17 -42 17 -38 0 -59 25 -34 41 23 14 38
10 55 -16z m-1004 -142 c17 -15 18 -41 18 -409 0 -394 0 -394 -25 -410 -23
-15 -27 -15 -50 0 -24 16 -25 21 -25 109 0 84 -3 97 -25 127 -18 24 -25 47
-25 77 0 37 -6 50 -50 98 -50 55 -50 55 -50 201 0 146 0 146 39 185 37 38 41
39 107 39 49 0 72 -5 86 -17z m772 -83 c9 0 39 -21 66 -46 26 -25 63 -49 82
-54 46 -13 498 -465 498 -499 0 -14 27 -51 75 -101 45 -47 75 -87 75 -100 0
-13 30 -53 75 -100 46 -48 75 -87 75 -100 0 -14 36 -59 100 -125 66 -68 100
-110 100 -125 0 -15 40 -64 125 -150 87 -89 125 -134 125 -150 0 -17 56 -80
200 -225 145 -146 200 -208 200 -225 0 -16 43 -67 150 -175 104 -105 150 -159
150 -175 0 -15 33 -56 100 -125 64 -66 100 -111 100 -125 0 -13 29 -52 75
-100 43 -46 75 -87 75 -99 0 -12 23 -46 50 -76 28 -30 50 -63 50 -73 0 -10 11
-33 25 -52 14 -19 25 -42 25 -52 0 -10 23 -43 50 -73 44 -48 50 -61 50 -98 0
-30 7 -53 25 -77 14 -19 25 -41 25 -50 0 -9 11 -31 25 -50 14 -19 25 -41 25
-50 0 -9 11 -31 25 -50 17 -23 25 -47 25 -75 0 -28 8 -52 25 -75 17 -23 25
-47 25 -75 0 -28 8 -52 25 -75 22 -30 25 -44 25 -125 0 -81 3 -95 25 -125 24
-33 25 -39 25 -200 0 -161 1 -167 25 -200 25 -34 25 -35 25 -250 0 -215 0
-216 25 -250 21 -28 25 -45 25 -100 0 -55 4 -72 25 -100 17 -23 25 -47 25 -75
0 -28 8 -52 25 -75 17 -23 25 -47 25 -75 0 -28 8 -52 25 -75 14 -19 25 -41 25
-50 0 -9 11 -31 25 -50 17 -23 25 -47 25 -75 0 -28 8 -52 25 -75 14 -19 25
-41 25 -50 0 -9 11 -31 25 -50 14 -19 25 -41 25 -50 0 -9 11 -31 25 -50 17
-23 25 -47 25 -75 0 -28 8 -52 25 -75 14 -19 25 -41 25 -50 0 -9 11 -31 25
-50 14 -19 25 -41 25 -50 0 -9 11 -31 25 -50 14 -19 25 -41 25 -50 0 -9 11
-31 25 -50 17 -23 25 -47 25 -75 0 -28 8 -52 25 -75 14 -19 25 -41 25 -50 0
-9 11 -31 25 -50 21 -28 25 -45 25 -100 0 -55 4 -72 25 -100 22 -30 25 -44 25
-125 0 -81 3 -95 25 -125 30 -41 31 -59 5 -93 -11 -14 -20 -28 -20 -32 0 -4 9
-18 20 -32 26 -34 25 -52 -5 -93 -14 -19 -25 -41 -25 -50 0 -9 -11 -31 -25
-50 -14 -19 -25 -42 -25 -52 0 -10 -22 -43 -50 -73 -27 -30 -50 -63 -50 -72 0
-22 -29 -53 -50 -53 -9 0 -31 -11 -50 -25 -19 -14 -41 -25 -50 -25 -9 0 -31
-11 -50 -25 -28 -21 -45 -25 -100 -25 -55 0 -72 -4 -100 -25 -50 -37 -200 -37
-250 0 -32 24 -40 25 -175 25 -135 0 -143 1 -175 25 -28 21 -45 25 -100 25
-55 0 -72 4 -100 25 -23 17 -47 25 -75 25 -28 0 -52 8 -75 25 -28 21 -45 25
-100 25 -55 0 -72 4 -100 25 -23 17 -47 25 -75 25 -28 0 -52 8 -75 25 -23 17
-47 25 -75 25 -28 0 -52 8 -75 25 -23 17 -47 25 -75 25 -28 0 -52 8 -75 25
-23 17 -47 25 -75 25 -28 0 -52 8 -75 25 -23 17 -47 25 -75 25 -28 0 -52 8
-75 25 -23 17 -47 25 -75 25 -28 0 -52 8 -75 25 -28 21 -45 25 -100 25 -55 0
-72 4 -100 25 -28 21 -45 25 -100 25 -55 0 -72 4 -100 25 -33 24 -39 25 -200
25 -161 0 -167 1 -200 25 -46 34 -104 34 -150 0 -33 -24 -39 -25 -200 -25
-161 0 -167 -1 -200 -25 -52 -38 -298 -38 -350 0 -30 22 -44 25 -125 25 -81 0
-95 3 -125 25 -19 14 -41 25 -50 25 -9 0 -31 11 -50 25 -23 17 -47 25 -75 25
-28 0 -52 8 -75 25 -19 14 -41 25 -50 25 -9 0 -31 11 -50 25 -23 17 -47 25
-75 25 -28 0 -52 8 -75 25 -30 22 -44 25 -125 25 -81 0 -95 3 -125 25 -51 38
-249 38 -300 0 -28 -21 -45 -25 -100 -25 -55 0 -72 -4 -100 -25 -19 -14 -41
-25 -51 -25 -9 0 -28 -9 -43 -21 -14 -11 -41 -25 -59 -30 -44 -12 -447 -415
-447 -447 0 -12 -22 -46 -50 -77 -27 -30 -50 -64 -50 -75 0 -11 -22 -45 -50
-75 -27 -30 -50 -63 -50 -73 0 -10 -11 -33 -25 -52 -14 -19 -25 -42 -25 -52 0
-10 -22 -43 -50 -73 -27 -30 -50 -65 -50 -76 0 -13 -29 -51 -70 -94 -43 -44
-75 -86 -80 -106 -15 -53 -160 -192 -200 -192 -39 0 -136 91 -149 140 -5 18
-19 45 -30 59 -14 17 -21 41 -21 68 0 29 -8 53 -25 76 -17 23 -25 47 -25 75 0
28 -8 52 -25 75 -17 23 -25 47 -25 75 0 28 -8 52 -25 75 -17 23 -25 47 -25 75
0 28 -8 52 -25 75 -17 23 -25 47 -25 76 0 27 -7 51 -21 68 -11 14 -25 41 -30
59 -12 45 -102 129 -170 159 -55 25 -56 25 -90 7 -19 -10 -51 -18 -73 -19 -34
0 -47 -8 -122 -82 -55 -53 -87 -93 -93 -115 -5 -18 -19 -45 -30 -59 -12 -15
-21 -34 -21 -43 0 -10 -11 -32 -25 -51 -14 -19 -25 -42 -25 -52 0 -10 -22 -43
-50 -73 -27 -30 -50 -63 -50 -73 0 -10 -11 -33 -25 -52 -14 -19 -25 -41 -25
-50 0 -9 -11 -31 -25 -50 -14 -19 -25 -41 -25 -50 0 -9 -11 -31 -25 -50 -14
-19 -25 -41 -25 -50 0 -9 -11 -31 -25 -50 -14 -19 -25 -41 -25 -50 0 -9 -11
-31 -25 -50 -14 -19 -25 -41 -25 -50 0 -9 -11 -31 -25 -50 -14 -19 -25 -41
-25 -50 0 -9 -11 -31 -25 -50 -14 -19 -25 -41 -25 -50 0 -9 -11 -31 -25 -50
-14 -19 -25 -42 -25 -52 0 -10 -22 -43 -50 -73 -27 -30 -50 -65 -50 -76 0 -13
-38 -60 -100 -124 -55 -57 -100 -111 -100 -121 0 -24 -29 -54 -51 -54 -11 0
-44 -22 -74 -50 -55 -50 -55 -50 -177 -50 -122 0 -122 0 -210 88 -88 88 -88
88 -88 158 0 59 4 75 25 104 14 19 25 43 25 54 0 32 456 484 500 496 46 13
500 464 500 498 0 12 22 46 50 77 28 30 50 63 50 73 0 10 11 33 25 52 14 19
25 41 25 50 0 9 11 31 25 50 24 33 25 39 25 200 0 161 -1 167 -25 200 -18 24
-25 47 -25 77 0 37 -6 50 -50 98 -27 30 -50 65 -50 76 0 31 -155 187 -197 198
-18 5 -45 19 -59 30 -15 12 -34 21 -43 21 -10 0 -32 11 -51 25 -28 21 -45 25
-100 25 -55 0 -72 4 -100 25 -46 34 -104 34 -150 0 -28 -21 -45 -25 -100 -25
-55 0 -72 -4 -100 -25 -23 -17 -47 -25 -75 -25 -28 0 -52 -8 -75 -25 -19 -14
-41 -25 -50 -25 -9 0 -31 -11 -50 -25 -19 -14 -41 -25 -50 -25 -9 0 -31 -11
-50 -25 -19 -14 -42 -25 -52 -25 -10 0 -43 -22 -73 -50 -31 -28 -65 -50 -77
-50 -16 0 -145 -123 -448 -425 -279 -279 -433 -425 -446 -425 -11 0 -35 -11
-54 -25 -28 -21 -45 -25 -100 -25 -55 0 -72 -4 -100 -25 -34 -25 -34 -25 -325
-25 -291 0 -291 0 -325 -25 -30 -22 -44 -25 -125 -25 -81 0 -95 -3 -125 -25
-19 -14 -41 -25 -50 -25 -9 0 -31 -11 -50 -25 -19 -14 -41 -25 -50 -25 -9 0
-31 -11 -50 -25 -19 -14 -41 -25 -50 -25 -9 0 -31 -11 -50 -25 -19 -14 -43
-25 -53 -25 -11 0 -61 -41 -117 -95 -65 -64 -108 -99 -132 -105 -45 -13 -198
-167 -198 -200 0 -15 -40 -63 -125 -150 -83 -85 -125 -135 -125 -149 0 -14
-28 -52 -75 -101 -43 -46 -75 -87 -75 -99 0 -12 -22 -46 -50 -76 -27 -30 -50
-64 -50 -75 0 -11 -22 -45 -50 -75 -27 -30 -50 -64 -50 -75 0 -11 -22 -45 -50
-75 -28 -31 -50 -65 -50 -77 0 -32 -403 -435 -447 -447 -18 -5 -45 -19 -59
-30 -15 -12 -34 -21 -43 -21 -10 0 -32 -11 -51 -25 -19 -14 -41 -25 -50 -25
-9 0 -31 -11 -50 -25 -23 -17 -47 -25 -75 -25 -28 0 -52 -8 -75 -25 -51 -38
-249 -38 -300 0 -19 14 -43 25 -53 25 -11 0 -37 17 -58 39 -22 21 -39 47 -39
58 0 10 -11 34 -25 53 -34 46 -34 104 0 150 17 23 25 47 25 75 0 28 8 52 25
75 14 19 25 41 25 50 0 9 11 31 25 50 14 19 25 42 25 53 0 10 34 54 75 97 47
50 75 87 75 101 0 33 253 286 298 299 21 5 63 37 107 80 43 41 81 70 94 70 11
0 46 23 76 50 30 28 64 50 75 50 11 0 45 23 75 50 30 28 64 50 75 50 11 0 45
23 75 50 30 28 64 50 76 50 11 0 42 21 69 46 26 25 63 49 82 54 45 13 448 415
448 448 0 12 22 46 50 77 28 30 50 63 50 73 0 10 11 33 25 52 14 19 25 41 25
50 0 9 11 31 25 50 14 19 25 41 25 50 0 9 11 31 25 50 14 19 25 41 25 50 0 9
11 31 25 50 17 23 25 47 25 75 0 28 8 52 25 75 17 23 25 47 25 75 0 28 8 52
25 75 17 23 25 47 25 75 0 28 8 52 25 75 14 19 25 41 25 50 0 9 11 31 25 50
17 23 25 47 25 75 0 28 8 52 25 75 21 28 25 45 25 100 0 55 4 72 25 100 17 23
25 47 25 75 0 28 8 52 25 75 14 19 25 41 25 50 0 9 11 31 25 50 17 23 25 47
25 75 0 28 8 52 25 75 14 19 25 41 25 50 0 9 11 31 25 50 14 19 25 42 25 52 0
10 23 43 50 73 28 30 50 64 50 75 0 11 23 45 50 75 28 30 50 64 50 75 0 11 23
45 50 75 28 30 50 64 50 75 0 11 23 45 50 75 28 30 50 64 50 75 0 11 23 45 50
75 28 30 50 64 50 75 0 11 23 45 50 75 28 30 50 63 50 73 0 10 11 33 25 52 14
19 25 42 25 52 0 10 23 43 50 73 28 30 50 63 50 73 0 10 11 33 25 52 14 19 25
41 25 50 0 9 11 31 25 50 17 23 25 47 25 75 0 28 8 52 25 75 14 19 25 41 25
50 0 9 11 31 25 50 17 23 25 47 25 75 0 28 8 52 25 75 14 19 25 41 25 50 0 9
11 31 25 50 14 19 25 41 25 50 0 9 11 31 25 50 14 19 25 42 25 52 0 11 21 41
46 68 25 26 49 63 54 82 13 47 665 698 699 698 16 0 56 32 126 100 68 66 110
100 125 100 15 0 64 40 150 125 88 86 134 125 150 125 16 0 69 45 175 150 109
108 159 150 176 150 17 0 129 105 449 425 303 302 432 425 448 425 12 0 46 22
77 50 30 28 64 50 75 50 11 0 45 23 75 50 49 44 60 50 100 50 40 0 51 6 100
50 48 44 61 50 98 50 30 0 53 7 77 25 19 14 41 25 50 25 9 0 31 11 50 25 19
14 41 25 50 25 9 0 31 11 50 25 19 14 41 25 50 25 9 0 31 11 50 25 23 17 47
25 75 25 28 0 52 8 75 25 19 14 41 25 50 25 9 0 31 11 50 25 23 17 47 25 75
25 28 0 52 8 75 25 19 14 41 25 50 25 9 0 31 11 50 25 19 14 41 25 50 25 9 0
31 11 50 25 23 17 47 25 75 25 28 0 52 8 75 25 19 14 41 25 50 25 9 0 31 11
50 25 23 17 47 25 75 25 28 0 52 8 75 25 19 14 41 25 50 25 9 0 31 11 50 25
19 14 41 25 50 25 9 0 31 11 50 25 23 17 47 25 75 25 28 0 52 8 75 25 19 14
41 25 50 25 9 0 31 11 50 25 19 14 41 25 50 25 9 0 31 11 50 25 23 17 47 25
75 25 28 0 52 8 75 25 19 14 39 25 46 25 7 0 25 8 42 17 55 31 62 18 62 -115
0 -110 -2 -120 -25 -152 -17 -23 -25 -47 -25 -75 0 -28 8 -52 25 -75 21 -28
25 -45 25 -103 0 -70 0 -70 -125 -197 -81 -82 -125 -135 -125 -149 0 -11 -22
-46 -50 -76 -44 -48 -50 -61 -50 -98 0 -30 -7 -53 -25 -77 -25 -34 -25 -35
-25 -250 0 -215 0 -216 25 -250 17 -23 25 -47 25 -75 0 -28 8 -52 25 -75 14
-19 25 -41 25 -50 0 -9 11 -31 25 -50 14 -19 25 -41 25 -50 0 -9 11 -31 25
-50 14 -19 25 -42 25 -52 0 -11 21 -41 46 -68 25 -26 49 -64 54 -82 13 -44
217 -248 248 -248 12 0 47 -22 77 -50 30 -27 64 -50 75 -50 11 0 45 -22 75
-50 30 -27 63 -50 73 -50 10 0 33 -11 52 -25 23 -17 47 -25 75 -25 28 0 52 -8
75 -25 28 -21 45 -25 100 -25 55 0 72 -4 100 -25 34 -25 34 -25 400 -25 366 0
366 0 400 25 23 17 47 25 75 25 28 0 52 8 75 25 23 17 47 25 75 25 28 0 52 8
75 25 19 14 41 25 50 25 9 0 31 11 50 25 19 14 42 25 52 25 11 0 41 21 68 46
26 25 64 49 83 55 42 11 147 118 147 149 0 13 30 52 75 100 70 73 75 82 75
122 0 31 7 54 25 78 24 33 25 39 25 200 0 161 -1 167 -25 200 -21 28 -25 45
-25 100 0 55 -4 72 -25 100 -14 19 -25 41 -25 50 0 9 -11 31 -25 50 -14 19
-25 42 -25 53 0 10 -34 54 -75 97 -46 49 -75 87 -75 101 0 32 -154 186 -198
199 -21 5 -63 36 -107 80 -40 38 -81 70 -91 70 -9 0 -26 7 -36 17 -17 15 -18
40 -18 383 0 366 0 366 -25 400 -42 57 -37 160 10 207 35 35 35 35 69 14 18
-12 41 -21 50 -21z m59 -1439 c43 -42 80 -87 84 -101 3 -14 13 -37 21 -51 28
-50 14 -59 -94 -59 -96 0 -96 0 -135 39 -39 39 -39 39 -39 134 0 88 2 97 22
111 33 23 55 12 141 -73z m-2068 -161 c0 -118 -1 -125 -20 -125 -19 0 -20 8
-23 114 -3 127 0 144 25 139 16 -3 18 -17 18 -128z m2253 -798 c4 -28 -66
-102 -97 -102 -11 0 -46 -22 -76 -50 -30 -27 -63 -50 -73 -50 -10 0 -33 -11
-52 -25 -19 -14 -41 -25 -50 -25 -9 0 -31 -11 -50 -25 -23 -17 -47 -25 -75
-25 -28 0 -52 -8 -75 -25 -30 -22 -44 -25 -125 -25 -81 0 -95 -3 -125 -25 -32
-23 -42 -25 -150 -25 -108 0 -118 2 -150 25 -32 23 -42 25 -150 25 -108 0
-118 2 -150 25 -23 17 -47 25 -75 25 -28 0 -52 8 -75 25 -19 14 -41 25 -50 25
-9 0 -31 11 -50 25 -19 14 -42 25 -52 25 -10 0 -43 23 -73 50 -30 28 -63 50
-72 50 -23 0 -53 29 -53 51 0 47 19 49 430 49 386 0 386 0 420 -25 34 -25 34
-25 400 -25 366 0 366 0 400 25 28 21 45 25 100 25 43 0 73 5 86 15 27 21 58
15 62 -13z m-1698 -4777 c28 -21 45 -25 100 -25 55 0 72 -4 100 -25 23 -17 47
-25 75 -25 28 0 52 -8 75 -25 19 -14 41 -25 50 -25 9 0 31 -11 50 -25 23 -17
47 -25 75 -25 28 0 52 -8 75 -25 23 -17 47 -25 75 -25 28 0 52 -8 75 -25 34
-25 34 -25 425 -25 391 0 391 0 425 25 33 25 37 25 225 25 188 0 192 0 225
-25 30 -22 44 -25 125 -25 81 0 95 -3 125 -25 28 -21 45 -25 100 -25 55 0 72
-4 100 -25 23 -17 47 -25 75 -25 28 0 52 -8 75 -25 23 -17 47 -25 75 -25 28 0
52 -8 75 -25 23 -17 47 -25 75 -25 28 0 52 -8 75 -25 23 -17 47 -25 75 -25 28
0 52 -8 75 -25 23 -17 47 -25 75 -25 28 0 52 -8 75 -25 23 -17 47 -25 75 -25
28 0 52 -8 75 -25 28 -21 45 -25 100 -25 55 0 72 -4 100 -25 23 -17 47 -25 75
-25 28 0 52 -8 75 -25 28 -21 45 -25 100 -25 55 0 72 -4 100 -25 30 -22 44
-25 125 -25 81 0 95 -3 125 -25 28 -21 45 -25 100 -25 55 0 72 -4 100 -25 28
-21 45 -25 100 -25 55 0 72 -4 100 -25 23 -17 47 -25 75 -25 28 0 52 -8 75
-25 23 -17 47 -25 75 -25 28 0 52 -8 75 -25 23 -17 47 -25 75 -25 28 0 52 -8
75 -25 23 -17 47 -25 75 -25 28 0 52 -8 75 -25 23 -17 47 -25 75 -25 28 0 52
-8 75 -25 23 -17 47 -25 75 -25 28 0 52 -8 75 -25 19 -14 42 -25 53 -25 10 0
35 -16 54 -35 35 -35 35 -35 14 -69 -12 -18 -21 -40 -21 -48 0 -8 -11 -29 -25
-48 -40 -54 -35 -112 14 -161 38 -38 40 -39 111 -39 71 0 73 1 111 39 34 33
39 45 39 83 0 31 7 54 25 78 14 19 25 41 25 50 0 9 11 31 25 50 14 19 25 41
25 50 0 9 11 31 25 50 14 19 25 42 25 52 0 11 21 41 46 68 25 26 49 63 54 82
13 44 316 348 348 348 12 0 46 22 77 50 48 44 61 50 98 50 30 0 53 7 77 25 28
21 45 25 100 25 55 0 72 4 100 25 30 22 44 25 125 25 81 0 95 -3 125 -25 28
-21 45 -25 100 -25 55 0 72 -4 100 -25 19 -14 41 -25 50 -25 9 0 31 -11 50
-25 19 -14 41 -25 51 -25 9 0 28 -9 43 -21 14 -11 41 -25 59 -30 42 -11 197
-167 197 -198 0 -11 22 -46 50 -76 27 -30 50 -63 50 -73 0 -10 11 -33 25 -52
14 -19 25 -41 25 -50 0 -9 11 -31 25 -50 25 -34 25 -35 25 -250 0 -215 0 -216
-25 -250 -18 -24 -25 -47 -25 -77 0 -38 -6 -50 -46 -93 -25 -26 -49 -63 -54
-82 -13 -45 -366 -398 -399 -398 -14 0 -51 -27 -101 -75 -43 -41 -87 -75 -97
-75 -11 0 -34 -11 -53 -25 -19 -14 -41 -25 -50 -25 -9 0 -31 -11 -50 -25 -19
-14 -41 -25 -50 -25 -9 0 -31 -11 -50 -25 -23 -17 -47 -25 -75 -25 -28 0 -52
-8 -75 -25 -28 -21 -45 -25 -100 -25 -55 0 -72 -4 -100 -25 -33 -25 -37 -25
-225 -25 -188 0 -192 0 -225 25 -30 22 -44 25 -125 25 -81 0 -95 3 -125 25
-23 17 -47 25 -75 25 -28 0 -52 8 -75 25 -19 14 -41 25 -50 25 -9 0 -31 11
-50 25 -23 17 -47 25 -75 25 -28 0 -52 8 -75 25 -19 14 -41 25 -50 25 -9 0
-31 11 -50 25 -19 14 -41 25 -50 25 -9 0 -31 11 -50 25 -19 14 -41 25 -50 25
-9 0 -31 11 -50 25 -19 14 -41 25 -50 25 -9 0 -31 11 -50 25 -19 14 -42 25
-52 25 -10 0 -43 23 -73 50 -30 28 -63 50 -73 50 -10 0 -33 11 -52 25 -19 14
-41 25 -50 25 -9 0 -31 11 -50 25 -19 14 -42 25 -52 25 -10 0 -43 23 -73 50
-30 28 -63 50 -73 50 -10 0 -33 11 -52 25 -19 14 -41 25 -50 25 -9 0 -31 11
-50 25 -19 14 -41 25 -50 25 -9 0 -31 11 -50 25 -19 14 -42 25 -52 25 -10 0
-43 23 -73 50 -30 28 -63 50 -73 50 -10 0 -33 11 -52 25 -19 14 -41 25 -50 25
-9 0 -31 11 -50 25 -19 14 -41 25 -50 25 -9 0 -31 11 -50 25 -19 14 -41 25
-50 25 -9 0 -31 11 -50 25 -19 14 -41 25 -50 25 -9 0 -31 11 -50 25 -19 14
-41 25 -50 25 -9 0 -31 11 -50 25 -23 17 -47 25 -75 25 -28 0 -52 8 -75 25
-19 14 -41 25 -50 25 -9 0 -31 11 -50 25 -19 14 -41 25 -50 25 -9 0 -31 11
-50 25 -23 17 -47 25 -75 25 -28 0 -52 8 -75 25 -19 14 -41 25 -50 25 -9 0
-31 11 -50 25 -23 17 -47 25 -75 25 -28 0 -52 8 -75 25 -23 17 -47 25 -75 25
-28 0 -52 8 -75 25 -23 17 -47 25 -75 25 -28 0 -52 8 -75 25 -23 17 -47 25
-75 25 -28 0 -52 8 -75 25 -19 14 -41 25 -50 25 -9 0 -31 11 -50 25 -28 21
-45 25 -100 25 -55 0 -72 4 -100 25 -23 17 -47 25 -75 25 -28 0 -52 8 -75 25
-23 17 -47 25 -75 25 -28 0 -52 8 -75 25 -23 17 -47 25 -75 25 -28 0 -52 8
-75 25 -28 21 -45 25 -100 25 -55 0 -72 4 -100 25 -28 21 -45 25 -100 25 -55
0 -72 4 -100 25 -28 21 -45 25 -100 25 -55 0 -72 4 -100 25 -28 21 -45 25
-100 25 -55 0 -72 4 -100 25 -30 22 -44 25 -125 25 -81 0 -95 3 -125 25 -32
23 -42 25 -150 25 -108 0 -118 2 -150 25 -30 22 -44 25 -125 25 -81 0 -95 3
-125 25 -33 25 -37 25 -226 25 -183 0 -192 1 -220 23 -27 21 -40 22 -229 27
-191 5 -200 6 -203 25 -4 26 245 275 274 275 11 0 35 11 54 25 23 17 47 25 75
25 28 0 52 8 75 25 32 24 40 25 175 25 135 0 143 -1 175 -25z"/>
<path d="M8450 9375 c-28 -21 -45 -25 -100 -25 -55 0 -72 -4 -100 -25 -24 -18
-47 -25 -78 -25 -44 0 -48 -3 -154 -107 -73 -72 -111 -118 -117 -140 -5 -18
-19 -45 -30 -59 -31 -40 -31 -248 0 -288 11 -14 25 -41 30 -59 6 -22 44 -68
117 -140 109 -107 109 -107 198 -107 67 -1 98 -5 124 -19 34 -19 36 -19 72 0
24 12 58 19 96 19 46 0 65 5 92 25 32 24 40 25 175 25 135 0 143 -1 175 -25
28 -21 45 -25 100 -25 55 0 72 -4 100 -25 19 -14 41 -25 50 -25 9 0 31 -11 50
-25 19 -14 41 -25 50 -25 9 0 31 -11 50 -25 19 -14 42 -25 52 -25 10 0 43 -22
73 -50 55 -50 55 -50 223 -50 164 0 169 1 202 25 19 14 42 25 53 25 28 0 135
107 146 146 5 19 19 46 30 60 12 15 21 34 21 43 0 10 11 32 25 51 37 50 37
200 0 250 -14 19 -25 41 -25 50 0 9 -11 31 -25 50 -14 19 -25 43 -25 53 0 26
-72 97 -99 97 -11 0 -46 23 -76 50 -30 28 -63 50 -73 50 -10 0 -33 11 -52 25
-19 14 -41 25 -50 25 -9 0 -31 11 -50 25 -19 14 -41 25 -50 25 -9 0 -31 11
-50 25 -23 17 -47 25 -75 25 -28 0 -52 8 -75 25 -23 17 -47 25 -75 25 -28 0
-52 8 -75 25 -28 21 -45 25 -100 25 -55 0 -72 4 -100 25 -34 25 -34 25 -325
25 -291 0 -291 0 -325 -25z m529 -275 c131 0 139 -1 171 -25 28 -21 45 -25
100 -25 55 0 72 -4 100 -25 19 -14 41 -25 50 -25 9 0 31 -11 50 -25 24 -18 47
-25 77 -25 38 0 50 -6 93 -46 26 -25 64 -49 82 -55 23 -6 62 -37 116 -93 95
-97 107 -139 57 -206 -14 -19 -25 -41 -25 -49 0 -41 -28 -51 -151 -51 -119 0
-119 0 -174 50 -30 28 -63 50 -73 50 -10 0 -33 11 -52 25 -19 14 -41 25 -50
25 -9 0 -31 11 -50 25 -23 17 -47 25 -75 25 -28 0 -52 8 -75 25 -32 23 -42 25
-150 25 -108 0 -118 2 -150 25 -28 21 -45 25 -100 25 -55 0 -72 -4 -100 -25
-30 -22 -44 -25 -125 -25 -81 0 -95 -3 -125 -25 -63 -47 -112 -37 -187 38 -63
64 -63 64 -63 137 0 73 0 73 63 137 59 59 67 63 108 63 32 0 55 7 79 25 32 24
40 25 172 25 119 0 142 3 170 20 32 19 32 19 66 0 29 -17 52 -20 171 -20z"/>
<path d="M11500 7525 c-32 -24 -40 -25 -175 -25 -135 0 -143 -1 -175 -25 -23
-17 -47 -25 -75 -25 -28 0 -52 -8 -75 -25 -19 -14 -41 -25 -50 -25 -9 0 -31
-11 -50 -25 -19 -14 -42 -25 -52 -25 -10 0 -43 -22 -73 -50 -30 -27 -63 -50
-74 -50 -22 0 -51 -30 -51 -53 0 -9 -22 -42 -50 -72 -50 -55 -50 -55 -50 -273
0 -217 0 -218 25 -252 17 -23 25 -47 25 -76 0 -27 7 -51 21 -68 11 -14 25 -41
30 -60 11 -39 118 -146 146 -146 11 0 34 -11 53 -25 19 -14 41 -25 50 -25 9 0
31 -11 50 -25 30 -22 43 -25 125 -25 126 0 125 2 125 -176 0 -134 1 -142 25
-174 14 -19 25 -43 25 -53 0 -29 157 -185 197 -196 18 -5 45 -19 59 -30 41
-32 347 -32 388 0 14 11 41 25 59 30 40 11 197 167 197 196 0 10 11 34 25 53
24 32 25 40 25 175 0 135 -1 143 -25 175 -17 23 -25 47 -25 73 0 21 -7 51 -16
67 -20 32 -13 60 14 60 10 0 33 11 52 25 32 23 42 25 151 25 103 0 119 2 143
21 14 11 41 25 59 30 22 6 62 38 115 93 82 84 82 84 82 278 0 191 0 195 -25
228 -17 23 -25 47 -25 76 0 27 -7 51 -21 68 -11 14 -25 41 -30 59 -11 40 -167
197 -196 197 -10 0 -34 11 -53 25 -19 14 -41 25 -50 25 -9 0 -31 11 -50 25
-34 25 -34 25 -400 25 -366 0 -366 0 -400 -25z m694 -246 c14 -11 41 -25 59
-30 22 -6 62 -38 115 -93 78 -79 82 -86 82 -128 0 -31 7 -54 25 -78 21 -28 25
-45 25 -103 0 -67 -1 -71 -39 -108 -37 -38 -41 -39 -108 -39 -58 0 -75 -4
-103 -25 -32 -24 -40 -25 -178 -25 -143 0 -143 0 -203 -57 -33 -31 -62 -68
-66 -82 -3 -14 -14 -40 -24 -56 -18 -30 -18 -32 1 -60 11 -17 20 -37 20 -46 0
-8 11 -30 25 -49 14 -19 25 -41 25 -50 0 -9 11 -31 25 -50 21 -28 25 -45 25
-99 0 -49 5 -74 20 -96 19 -28 19 -30 1 -60 -10 -16 -21 -42 -25 -56 -3 -15
-22 -41 -41 -58 -36 -31 -36 -31 -157 -31 -120 0 -120 0 -159 39 -38 37 -39
41 -39 106 0 50 -5 76 -20 99 -19 32 -19 32 0 61 18 27 20 48 20 199 0 168 0
168 -39 207 -49 49 -107 54 -161 14 -19 -14 -41 -25 -50 -25 -9 0 -31 -11 -50
-25 -28 -21 -45 -25 -100 -25 -55 0 -72 4 -100 25 -19 14 -41 25 -49 25 -20 0
-51 30 -51 50 0 9 -11 31 -25 50 -21 28 -25 45 -25 100 0 55 -4 72 -25 100
-30 41 -31 59 -4 94 11 14 25 41 30 59 6 22 38 62 93 115 79 78 86 82 128 82
31 0 54 7 78 25 30 22 44 25 125 25 81 0 95 3 125 25 32 24 40 25 175 25 135
0 143 1 175 25 33 25 37 25 226 25 179 0 193 -1 218 -21z"/>
<path d="M6300 7475 c-30 -22 -44 -25 -125 -25 -81 0 -95 -3 -125 -25 -23 -17
-47 -25 -75 -25 -28 0 -52 -8 -75 -25 -19 -14 -41 -25 -50 -25 -9 0 -31 -11
-50 -25 -19 -14 -41 -25 -50 -25 -9 0 -31 -11 -50 -25 -19 -14 -43 -25 -53
-25 -30 0 -235 -206 -246 -247 -5 -18 -19 -45 -30 -59 -12 -15 -21 -34 -21
-43 0 -10 -11 -32 -25 -51 -25 -33 -25 -37 -25 -225 0 -188 0 -192 25 -225 14
-19 25 -41 25 -51 0 -9 9 -28 21 -43 11 -14 25 -41 30 -59 11 -42 365 -397
395 -397 11 0 35 -11 54 -25 19 -14 41 -25 50 -25 9 0 31 -11 50 -25 19 -14
41 -25 50 -25 9 0 31 -11 50 -25 19 -14 41 -25 50 -25 9 0 31 -11 50 -25 23
-17 47 -25 75 -25 28 0 52 -8 75 -25 34 -25 34 -25 325 -25 291 0 291 0 325
25 28 21 45 25 100 25 55 0 72 4 100 25 23 17 47 25 75 25 28 0 52 8 75 25 19
14 41 25 50 25 9 0 31 11 50 25 19 14 42 25 52 25 10 0 43 23 73 50 30 28 64
50 76 50 12 0 53 32 99 75 49 46 87 75 101 75 27 0 99 71 99 99 0 11 22 46 50
76 27 30 50 63 50 73 0 10 11 33 25 52 14 19 25 41 25 50 0 9 11 31 25 50 24
32 25 40 25 175 0 135 -1 143 -25 175 -18 24 -25 47 -25 79 0 44 -1 46 -157
203 -110 110 -167 161 -190 167 -18 5 -45 19 -59 30 -15 12 -34 21 -43 21 -10
0 -32 11 -51 25 -23 17 -47 25 -75 25 -28 0 -52 8 -75 25 -23 17 -47 25 -75
25 -28 0 -52 8 -75 25 -32 23 -42 25 -150 25 -108 0 -118 2 -150 25 -34 25
-34 25 -325 25 -291 0 -291 0 -325 -25z m750 -300 c28 -21 45 -25 100 -25 55
0 72 -4 100 -25 23 -17 47 -25 75 -25 28 0 52 -8 75 -25 19 -14 41 -25 51 -25
9 0 28 -9 43 -21 14 -11 41 -25 59 -30 22 -6 68 -44 140 -117 107 -109 107
-109 107 -229 0 -111 -2 -121 -25 -153 -14 -19 -25 -43 -25 -54 0 -30 -306
-334 -347 -345 -18 -5 -45 -19 -59 -30 -15 -12 -34 -21 -43 -21 -10 0 -32 -11
-51 -25 -19 -14 -41 -25 -50 -25 -9 0 -31 -11 -50 -25 -23 -17 -47 -25 -75
-25 -28 0 -52 -8 -75 -25 -30 -22 -44 -25 -125 -25 -81 0 -95 -3 -125 -25 -30
-22 -44 -25 -125 -25 -81 0 -95 3 -125 25 -28 21 -45 25 -100 25 -55 0 -72 4
-100 25 -23 17 -47 25 -75 25 -28 0 -52 8 -75 25 -19 14 -42 25 -52 25 -10 0
-43 23 -73 50 -30 28 -65 50 -77 50 -31 0 -285 254 -297 297 -5 18 -19 45 -30
59 -14 17 -21 41 -21 68 0 24 -8 53 -20 71 -19 29 -19 29 0 61 15 23 20 49 20
99 0 68 0 68 107 177 72 73 118 111 140 117 18 5 45 19 59 30 15 12 34 21 43
21 10 0 32 11 51 25 28 21 45 25 100 25 55 0 72 4 100 25 34 25 34 25 425 25
391 0 391 0 425 -25z"/>
<path d="M13990 7469 c-23 -12 -56 -18 -96 -19 -48 0 -67 -5 -94 -25 -19 -14
-43 -25 -53 -25 -25 0 -97 -72 -97 -97 0 -10 -11 -34 -25 -53 -14 -19 -25 -41
-25 -50 0 -9 -11 -31 -25 -50 -24 -32 -25 -40 -25 -177 0 -143 0 -143 50 -198
28 -30 50 -65 50 -76 0 -14 44 -67 125 -149 81 -82 125 -135 125 -149 0 -11
23 -46 50 -76 28 -30 50 -63 50 -73 0 -10 11 -33 25 -52 17 -23 25 -47 25 -75
0 -28 8 -52 25 -75 17 -23 25 -47 25 -75 0 -28 8 -52 25 -75 21 -28 25 -45 25
-100 0 -55 4 -72 25 -100 25 -33 25 -37 25 -227 0 -193 0 -193 50 -248 28 -30
50 -65 50 -76 0 -27 71 -99 97 -99 10 0 34 -11 53 -25 19 -14 41 -25 50 -25 9
0 31 -11 50 -25 50 -37 200 -37 250 0 19 14 41 25 50 25 9 0 31 11 50 25 19
14 43 25 53 25 25 0 97 72 97 97 0 10 11 34 25 53 14 19 25 41 25 50 0 9 11
31 25 50 25 33 25 37 25 225 0 188 0 192 -25 225 -23 32 -25 42 -25 150 0 108
-2 118 -25 150 -21 28 -25 45 -25 100 0 55 -4 72 -25 100 -17 23 -25 47 -25
75 0 28 -8 52 -25 75 -14 19 -25 41 -25 50 0 9 -11 31 -25 50 -14 19 -25 41
-25 50 0 9 -11 31 -25 50 -14 19 -25 41 -25 50 0 9 -11 31 -25 50 -14 19 -25
41 -25 50 0 9 -11 31 -25 50 -14 19 -25 42 -25 52 0 11 -21 41 -46 68 -25 26
-49 63 -54 82 -7 24 -66 89 -218 241 -208 207 -208 207 -270 207 -42 0 -75 6
-100 19 -36 19 -38 19 -72 0z m267 -451 c133 -132 186 -192 193 -216 5 -19 29
-56 54 -82 25 -27 46 -57 46 -68 0 -10 11 -33 25 -52 14 -19 25 -41 25 -50 0
-9 11 -31 25 -50 14 -19 25 -41 25 -50 0 -9 11 -31 25 -50 17 -23 25 -47 25
-75 0 -28 8 -52 25 -75 17 -23 25 -47 25 -75 0 -28 8 -52 25 -75 21 -28 25
-45 25 -100 0 -55 4 -72 25 -100 25 -34 25 -34 25 -303 0 -269 0 -269 -39
-308 -39 -39 -39 -39 -136 -39 -97 0 -97 0 -136 39 -39 39 -39 39 -39 133 0
85 -2 98 -25 128 -24 32 -25 40 -25 175 0 135 -1 143 -25 175 -17 23 -25 47
-25 75 0 28 -8 52 -25 75 -17 23 -25 47 -25 75 0 28 -8 52 -25 75 -14 19 -25
41 -25 50 0 9 -11 31 -25 50 -14 19 -25 41 -25 50 0 9 -11 31 -25 50 -14 19
-25 41 -25 50 0 9 -11 31 -25 50 -14 19 -25 43 -25 53 0 12 -52 73 -125 147
-73 74 -125 135 -125 147 0 10 -11 34 -25 53 -21 29 -25 45 -25 104 0 69 0 69
63 133 61 60 66 63 112 63 49 0 49 0 232 -182z"/>
<path d="M8700 6225 c-19 -14 -41 -25 -50 -25 -9 0 -31 -11 -50 -25 -19 -14
-43 -25 -53 -25 -11 0 -37 -17 -58 -39 -22 -21 -39 -47 -39 -58 0 -10 -11 -34
-25 -53 -14 -19 -25 -41 -25 -50 0 -9 -11 -31 -25 -50 -22 -30 -25 -44 -25
-125 0 -81 3 -95 25 -125 18 -24 25 -47 25 -78 0 -42 4 -49 82 -128 53 -55 93
-87 115 -93 18 -5 45 -19 59 -30 15 -12 34 -21 43 -21 10 0 32 -11 51 -25 19
-14 41 -25 50 -25 9 0 31 -11 50 -25 19 -14 41 -25 50 -25 9 0 31 -11 50 -25
19 -14 41 -25 50 -25 9 0 31 -11 50 -25 28 -21 45 -25 100 -25 55 0 72 -4 100
-25 23 -17 47 -25 75 -25 28 0 52 -8 75 -25 32 -23 42 -25 150 -25 108 0 118
-2 150 -25 34 -25 34 -25 275 -25 241 0 241 0 275 25 28 21 45 25 100 25 55 0
72 4 100 25 19 14 43 25 53 25 29 0 185 157 196 197 5 18 19 45 30 59 19 24
21 40 21 169 0 129 -2 145 -21 169 -11 14 -25 41 -30 60 -11 39 -118 146 -146
146 -11 0 -34 11 -53 25 -19 14 -41 25 -50 25 -9 0 -31 11 -50 25 -30 22 -44
25 -125 25 -81 0 -95 -3 -125 -25 -32 -24 -40 -25 -175 -25 -135 0 -143 1
-175 25 -30 22 -44 25 -125 25 -81 0 -95 3 -125 25 -23 17 -47 25 -75 25 -28
0 -52 8 -75 25 -23 17 -47 25 -75 25 -28 0 -52 8 -75 25 -19 14 -42 25 -52 25
-10 0 -43 23 -73 50 -30 28 -63 50 -73 50 -10 0 -33 11 -52 25 -32 23 -42 25
-150 25 -108 0 -118 -2 -150 -25z m250 -300 c19 -14 41 -25 50 -25 9 0 31 -11
50 -25 19 -14 41 -25 50 -25 9 0 31 -11 50 -25 19 -14 41 -25 50 -25 9 0 31
-11 50 -25 23 -17 47 -25 75 -25 28 0 52 -8 75 -25 28 -21 45 -25 100 -25 55
0 72 -4 100 -25 34 -25 34 -25 403 -25 369 0 369 0 408 -39 22 -21 39 -47 39
-58 0 -10 11 -34 25 -53 14 -19 25 -41 25 -50 0 -9 -11 -31 -25 -50 -14 -19
-25 -41 -25 -49 0 -20 -30 -51 -50 -51 -9 0 -31 -11 -50 -25 -34 -25 -34 -25
-375 -25 -341 0 -341 0 -375 25 -30 22 -44 25 -125 25 -81 0 -95 3 -125 25
-23 17 -47 25 -75 25 -28 0 -52 8 -75 25 -19 14 -41 25 -50 25 -9 0 -31 11
-50 25 -23 17 -47 25 -75 25 -28 0 -52 8 -75 25 -19 14 -42 25 -52 25 -10 0
-43 23 -73 50 -30 28 -65 50 -76 50 -12 0 -39 17 -60 39 -38 38 -39 40 -39
111 0 73 0 73 63 137 64 63 64 63 133 63 59 0 75 -4 104 -25z"/>
</g>
</svg>
